<?xml version="1.0" standalone="no"?>
<!DOCTYPE svg PUBLIC "-//W3C//DTD SVG 20010904//EN"
 "http://www.w3.org/TR/2001/REC-SVG-20010904/DTD/svg10.dtd">
<svg version="1.0" xmlns="http://www.w3.org/2000/svg"
 width="384.000000pt" height="384.000000pt" viewBox="0 0 384.000000 384.000000"
 preserveAspectRatio="xMidYMid meet">
<metadata>
Created by potrace 1.11, written by Peter Selinger 2001-2013
</metadata>
<g transform="translate(0.000000,384.000000) scale(0.100000,-0.100000)"
fill="#000000" stroke="none">
<path d="M0 1920 l0 -1920 1920 0 1920 0 0 1920 0 1920 -1920 0 -1920 0 0
-1920z m953 1524 c338 -197 482 -477 365 -708 -24 -47 -99 -129 -144 -156
l-32 -21 -101 21 c-209 42 -345 123 -397 235 -56 119 -10 375 112 617 l44 87
46 -19 c25 -11 73 -36 107 -56z m2185 -60 l33 -6 -6 -77 c-11 -133 -34 -283
-60 -379 -141 -527 -514 -766 -900 -578 -106 52 -109 57 -136 193 -31 156 -34
396 -5 488 25 83 51 130 99 182 86 93 283 160 542 183 99 9 370 5 433 -6z
m-1748 -1140 c190 -54 338 -221 372 -422 42 -248 -118 -507 -360 -582 -81 -25
-225 -27 -303 -4 -162 48 -293 171 -351 329 -26 73 -35 209 -18 288 31 150
138 285 281 356 125 62 244 73 379 35z m1506 -618 c125 -33 204 -101 287 -247
118 -208 202 -512 233 -835 5 -59 4 -72 -9 -77 -41 -16 -277 -29 -422 -24
-318 11 -549 83 -732 229 -221 175 -292 466 -181 744 21 54 27 61 80 86 123
59 323 119 454 137 84 12 221 5 290 -13z"/>
<path d="M812 3393 c-97 -192 -149 -458 -106 -549 43 -90 190 -169 379 -203
l50 -9 56 56 c108 109 126 233 55 377 -60 120 -190 244 -348 330 l-67 36 -19
-38z"/>
<path d="M2686 3319 c-202 -21 -377 -76 -451 -141 -84 -74 -125 -192 -125
-363 0 -95 19 -245 41 -328 12 -46 56 -76 163 -112 225 -75 463 31 602 268 94
160 164 406 176 622 l3 50 -45 7 c-60 9 -266 7 -364 -3z"/>
<path d="M1143 2186 c-140 -35 -250 -126 -311 -254 -31 -65 -37 -89 -40 -163
-5 -104 18 -194 70 -274 l32 -50 8 55 c16 104 80 160 185 160 46 0 66 -5 96
-25 72 -49 98 -154 58 -233 -23 -45 -46 -66 -91 -86 -19 -8 -32 -15 -29 -16 3
0 30 -5 61 -10 172 -32 389 81 468 244 121 251 6 538 -253 635 -74 27 -185 35
-254 17z"/>
<path d="M1044 1590 c-34 -13 -74 -69 -74 -102 0 -16 8 -43 17 -59 57 -96 203
-57 203 55 0 50 -21 83 -66 102 -38 16 -50 16 -80 4z"/>
<path d="M2575 1564 c-102 -19 -194 -46 -322 -95 -97 -38 -102 -42 -117 -81
-47 -115 -58 -262 -30 -372 59 -231 285 -407 609 -476 155 -33 576 -40 623
-11 26 16 -40 365 -105 561 -47 141 -133 307 -191 369 -101 107 -258 142 -467
105z"/>
</g>
</svg>
